# xmcd
#
# Track frame offsets:
#	150
#	14893
#	28723
#	43209
#	61977
#	74491
#	88484
#	101717
#	115616
#	129053
#
# Disc length: 1893 seconds
#
# Revision: 0
# Processed by: cddbd v1.5.1PL0 Copyright (c) Steve Scherf et al.
# Submitted via: dBpowerAMP V4.0
#
DISCID=8e07630a
DTITLE=Merle Haggard - It's All In The Movies
DYEAR=1976
DGENRE=Country
TTITLE0=It's All In The Movies
TTITLE1=Nothin's Worse Than Losing
TTITLE2=After Loving You
TTITLE3=Stingeree
TTITLE4=This Is The Song We Sing
TTITLE5=Living With The Shades Pulled Down
TTITLE6=Hag's Dixie Blues #2
TTITLE7=Let's Stop Pretending
TTITLE8=Cotton Patch Blues
TTITLE9=The Seeker
EXTD=by Sound_man73
EXTT0=
EXTT1=
EXTT2=
EXTT3=
EXTT4=
EXTT5=
EXTT6=
EXTT7=
EXTT8=
EXTT9=
PLAYORDER=
